name D:\school\WTK\thesis\model\3dpredictsim\Results\Final\Fal_s1_bCst_ig1_v8.mot
datacolumns 126
datarows 4
range 0.00000000 0.04280943
endheader
time	pelvis_tilt	pelvis_list	pelvis_rotation	pelvis_tx	pelvis_ty	pelvis_tz	hip_flexion_l	hip_adduction_l	hip_rotation_l	hip_flexion_r	hip_adduction_r	hip_rotation_r	knee_angle_l	knee_angle_r	ankle_angle_l	ankle_angle_r	subtalar_angle_l	subtalar_angle_r	mtp_angle_l	mtp_angle_r	lumbar_extension	lumbar_bending	lumbar_rotation	arm_flex_l	arm_add_l	arm_rot_l	arm_flex_r	arm_add_r	arm_rot_r	elbow_flex_l	elbow_flex_r	pro_sup_l	pro_sup_r	glut_med1_l/activation	glut_med2_l/activation	glut_med3_l/activation	glut_min1_l/activation	glut_min2_l/activation	glut_min3_l/activation	semimem_l/activation	semiten_l/activation	bifemlh_l/activation	bifemsh_l/activation	sar_l/activation	add_long_l/activation	add_brev_l/activation	add_mag1_l/activation	add_mag2_l/activation	add_mag3_l/activation	tfl_l/activation	pect_l/activation	grac_l/activation	glut_max1_l/activation	glut_max2_l/activation	glut_max3_l/activation	iliacus_l/activation	psoas_l/activation	quad_fem_l/activation	gem_l/activation	peri_l/activation	rect_fem_l/activation	vas_med_l/activation	vas_int_l/activation	vas_lat_l/activation	med_gas_l/activation	lat_gas_l/activation	soleus_l/activation	tib_post_l/activation	flex_dig_l/activation	flex_hal_l/activation	tib_ant_l/activation	per_brev_l/activation	per_long_l/activation	per_tert_l/activation	ext_dig_l/activation	ext_hal_l/activation	ercspn_l/activation	intobl_l/activation	extobl_l/activation	glut_med1_r/activation	glut_med2_r/activation	glut_med3_r/activation	glut_min1_r/activation	glut_min2_r/activation	glut_min3_r/activation	semimem_r/activation	semiten_r/activation	bifemlh_r/activation	bifemsh_r/activation	sar_r/activation	add_long_r/activation	add_brev_r/activation	add_mag1_r/activation	add_mag2_r/activation	add_mag3_r/activation	tfl_r/activation	pect_r/activation	grac_r/activation	glut_max1_r/activation	glut_max2_r/activation	glut_max3_r/activation	iliacus_r/activation	psoas_r/activation	quad_fem_r/activation	gem_r/activation	peri_r/activation	rect_fem_r/activation	vas_med_r/activation	vas_int_r/activation	vas_lat_r/activation	med_gas_r/activation	lat_gas_r/activation	soleus_r/activation	tib_post_r/activation	flex_dig_r/activation	flex_hal_r/activation	tib_ant_r/activation	per_brev_r/activation	per_long_r/activation	per_tert_r/activation	ext_dig_r/activation	ext_hal_r/activation	ercspn_r/activation	intobl_r/activation	extobl_r/activation	
          0.00000000	         -2.90196287	         -2.67250049	          4.05659904	          0.00000000	          0.93237101	         -0.00230779	        -12.01822926	         -0.08068196	          6.05825055	         23.26748983	          4.76709672	          2.14379791	         -5.79656079	         -3.92752195	          4.83817908	          2.33875537	          5.55882758	         -2.22539405	         15.41691103	         -0.11942362	         -0.57363949	          0.57503348	         -2.18922021	          2.98568321	        -13.45083103	         14.72894442	         -1.07762364	        -13.45122905	         11.13204097	         25.92905519	         14.97119639	         86.51662706	         86.51662706	          0.42867489	          0.21737724	          0.13810582	          0.27781588	          0.27391824	          0.19625237	          0.05000051	          0.05000029	          0.05000021	          0.05000164	          0.11665484	          0.05000057	          0.05000039	          0.05000059	          0.05000118	          0.05000051	          0.29179319	          0.05000286	          0.05000146	          0.05000290	          0.05000160	          0.05000080	          0.35827129	          0.44090496	          0.05000093	          0.05000254	          0.08865040	          0.08685688	          0.05000067	          0.05000068	          0.05000064	          0.29400569	          0.36762516	          0.32672969	          0.25468804	          0.19212341	          0.23224846	          0.05000008	          0.05000268	          0.06727498	          0.05000042	          0.05000011	          0.05000039	          0.05000002	          0.05000005	          0.05000004	          0.05371774	          0.05000271	          0.05000048	          0.06189109	          0.05005273	          0.05000162	          0.06189002	          0.05000098	          0.06189248	          0.05000013	          0.05000040	          0.14530874	          0.26674643	          0.15541958	          0.14969397	          0.11063097	          0.05000028	          0.05001356	          0.05000136	          0.05000252	          0.06047306	          0.10624675	          0.05000016	          0.05000014	          0.08922649	          0.05000127	          0.06189134	          0.07152636	          0.13736775	          0.13866917	          0.11226075	          0.05000031	          0.05000041	          0.05608088	          0.05000011	          0.05000097	          0.05000043	          0.37701865	          0.14635985	          0.14578317	          0.12971648	          0.41785674	          0.16010513	          0.05113267	          0.11632184	          0.11070392	
          0.01426981	         -2.91505794	         -2.67023666	          4.27020340	          0.01393640	          0.93144547	         -0.00191407	        -12.01527892	         -0.19163498	          5.63357975	         22.29696156	          5.04667199	          2.46738617	         -7.34933270	         -3.26089751	          4.69665831	          1.73167258	          6.28746647	         -2.57570018	         16.40943146	         -0.09662521	         -0.42011893	          0.70732467	         -2.33697984	          3.00697367	        -13.45414652	         15.21415698	         -2.12999792	        -13.45560296	         10.95793967	         27.62733731	         13.93549562	         86.51662706	         86.51662706	          0.41479929	          0.17989425	          0.11739450	          0.29162819	          0.24383561	          0.15856650	          0.05000096	          0.05000038	          0.05000031	          0.05000107	          0.09424236	          0.05000021	          0.05000027	          0.05000043	          0.05000099	          0.05000058	          0.24882188	          0.05000102	          0.05000093	          0.05000560	          0.05000256	          0.05000102	          0.28943544	          0.38116141	          0.05000064	          0.05001272	          0.08457921	          0.11665517	          0.05000058	          0.05000060	          0.05000058	          0.26556949	          0.33916319	          0.32009018	          0.24672534	          0.19135224	          0.23545634	          0.05000010	          0.05000066	          0.07467383	          0.05000038	          0.05000011	          0.05000044	          0.05000005	          0.06189150	          0.05006209	          0.05000003	          0.05000007	          0.05000022	          0.05000009	          0.05000009	          0.05000013	          0.05000012	          0.05000064	          0.05000095	          0.05000015	          0.05000041	          0.11739363	          0.24148239	          0.21412714	          0.19272226	          0.11140904	          0.05000021	          0.06452013	          0.09616890	          0.05000094	          0.06253229	          0.11221330	          0.05000017	          0.05000023	          0.25769795	          0.06197912	          0.05000021	          0.09112052	          0.11920318	          0.11982316	          0.09073754	          0.05000004	          0.05000010	          0.05000001	          0.05000030	          0.05000084	          0.05000294	          0.37298414	          0.11824018	          0.18598769	          0.14781752	          0.39567162	          0.12934356	          0.05000002	          0.09397250	          0.08943393	
          0.02853962	         -2.92303980	         -2.67282743	          4.46394845	          0.02826855	          0.93060973	         -0.00152849	        -11.97659363	         -0.32268697	          5.21426591	         21.25301659	          5.21719427	          2.80032086	         -8.99685031	         -2.90780439	          4.41839671	          1.18643202	          7.02411349	         -2.94123650	         17.35323774	         -0.14223309	         -0.24009202	          0.85431778	         -2.47076863	          2.93204085	        -13.45208752	         15.64044066	         -3.28377314	        -13.46577091	         10.91159254	         29.36986306	         13.06324888	         86.51662706	         86.51662706	          0.39334092	          0.14533043	          0.09483903	          0.24647812	          0.19698694	          0.12810059	          0.05000221	          0.05000053	          0.05000029	          0.05000042	          0.07613572	          0.05000029	          0.05000042	          0.05000067	          0.05000159	          0.05000158	          0.20102706	          0.05000109	          0.05000089	          0.05000491	          0.05000339	          0.05000192	          0.25374218	          0.36781274	          0.05000034	          0.05000105	          0.06832879	          0.13215903	          0.05000093	          0.05000095	          0.05000078	          0.23500636	          0.30985638	          0.30297467	          0.23618473	          0.18902376	          0.23350904	          0.05000007	          0.05000053	          0.08428965	          0.05000027	          0.05000008	          0.05000032	          0.05000002	          0.05000011	          0.05000030	          0.16901513	          0.12017305	          0.06300707	          0.07863368	          0.05009713	          0.06084118	          0.05278697	          0.05739774	          0.05020807	          0.05000060	          0.05000055	          0.09483828	          0.19508528	          0.17298599	          0.15569381	          0.09000374	          0.05000104	          0.05212438	          0.07769177	          0.07589772	          0.06864233	          0.09065337	          0.05000017	          0.05000019	          0.20818528	          0.05007304	          0.09053986	          0.07361313	          0.09630038	          0.09680124	          0.07330402	          0.05000017	          0.05000038	          0.05000013	          0.05000014	          0.05000063	          0.05000055	          0.42746497	          0.23478307	          0.15025312	          0.11941683	          0.45054137	          0.10449245	          0.05000002	          0.12954851	          0.07645420	
          0.04280943	         -2.92769732	         -2.67379646	          4.62325442	          0.04286869	          0.92993482	         -0.00112275	        -11.88121414	         -0.46321826	          4.80771051	         20.15638820	          5.33527508	          3.12786080	        -10.75334423	         -2.51653605	          3.97466518	          0.60374623	          7.75176381	         -3.32239559	         18.21281603	         -0.15121508	         -0.04678081	          1.01427065	         -2.59758889	          2.78134043	        -13.44985592	         16.04616876	         -4.50698405	        -13.47496261	         10.93081874	         31.11620362	         12.36104817	         86.51662706	         86.51662706	          0.38161849	          0.11740750	          0.07661731	          0.23234918	          0.15913951	          0.10348828	          0.05000087	          0.05000029	          0.05000024	          0.05000031	          0.06254579	          0.05000028	          0.05000034	          0.05000054	          0.05000119	          0.05000081	          0.16240379	          0.05000113	          0.05000086	          0.05000472	          0.05000266	          0.05000129	          0.21244017	          0.33754162	          0.05000066	          0.05000267	          0.05520146	          0.17958247	          0.05000134	          0.05000127	          0.05000149	          0.18985359	          0.26058937	          0.27552621	          0.21501068	          0.16113185	          0.21631401	          0.05000007	          0.05000149	          0.10421793	          0.05000033	          0.05000010	          0.05000036	          0.05000003	          0.05000003	          0.05000003	          0.23466260	          0.18418934	          0.16592691	          0.09494814	          0.08647276	          0.09554858	          0.05002292	          0.05995530	          0.05002088	          0.05000040	          0.05000047	          0.07661660	          0.15760266	          0.13974953	          0.12578003	          0.10019734	          0.05000041	          0.05000145	          0.06276475	          0.12024607	          0.09116533	          0.08646155	          0.05000010	          0.05000010	          0.16818571	          0.05000146	          0.09872179	          0.05946957	          0.07779886	          0.07820353	          0.05922088	          0.05000004	          0.05000009	          0.05000002	          0.05000010	          0.05000048	          0.05000049	          0.46809649	          0.21794437	          0.16806585	          0.29468712	          0.46228296	          0.17236557	          0.06155468	          0.12612994	          0.06189128	
